<svg xmlns="http://www.w3.org/2000/svg" version="1.1" xmlns:xlink="http://www.w3.org/1999/xlink" xmlns:svgjs="http://svgjs.dev/svgjs" width="1500" height="1500" viewBox="0 0 1500 1500"><rect width="1500" height="1500" fill="#000000"></rect><g transform="matrix(0.6666666666666666,0,0,0.6666666666666666,249.39393939393938,438.5856950067477)"><svg viewBox="0 0 396 247" data-background-color="#000000" preserveAspectRatio="xMidYMid meet" height="935" width="1500" xmlns="http://www.w3.org/2000/svg" xmlns:xlink="http://www.w3.org/1999/xlink"><g id="tight-bounds" transform="matrix(1,0,0,1,0.2400000000000091,-0.09999999999999432)"><svg viewBox="0 0 395.52 247.2" height="247.2" width="395.52"><g><svg></svg></g><g><svg viewBox="0 0 395.52 247.2" height="247.2" width="395.52"><mask id="13039ab0-5639-41fc-8dcd-d17e9c995776"><rect width="640" height="400" fill="white"></rect><g transform="matrix(1,0,0,1,39.55199999999999,105.89471628651461)"><svg viewBox="0 0 316.416 35.410567426970786" height="35.410567426970786" width="316.416"><g><svg viewBox="0 0 316.416 35.410567426970786" height="35.410567426970786" width="316.416"><g><svg viewBox="0 0 316.416 35.410567426970786" height="35.410567426970786" width="316.416"><g><svg viewBox="0 0 316.416 35.410567426970786" height="35.410567426970786" width="316.416"><g id="SvgjsG1286"><svg viewBox="0 0 316.416 35.410567426970786" height="35.410567426970786" width="316.416" id="SvgjsSvg1285"><g><svg viewBox="0 0 316.416 35.410567426970786" height="35.410567426970786" width="316.416"><g transform="matrix(1,0,0,1,0,0)"><svg width="316.416" viewBox="-1.85 -38.6 375.82000000000005 42.95" height="35.410567426970786" data-palette-color="#ffffff"><path d="M17.1-34.6L17.1-34.6Q23.05-34.6 27.25-32.15 31.45-29.7 31.45-26.95L31.45-26.95Q31.45-26.2 31.13-25.68 30.8-25.15 30.33-24.93 29.85-24.7 29.3-24.7L29.3-24.7Q28.4-24.7 26.6-25.63 24.8-26.55 22.6-27.48 20.4-28.4 18.55-28.4L18.55-28.4Q15.6-28.4 15.6-26L15.6-26Q15.6-25.25 16.07-24.58 16.55-23.9 17.6-23.18 18.65-22.45 19.65-21.9 20.65-21.35 22.4-20.43 24.15-19.5 25.35-18.8L25.35-18.8Q29.2-16.6 30.75-14.6 32.3-12.6 32.3-10L32.3-10Q32.3 0.35 18.35 0.35L18.35 0.35Q15.6 0.35 13.03-0.2 10.45-0.75 8.53-1.65 6.6-2.55 5.13-3.65 3.65-4.75 2.9-5.9 2.15-7.05 2.15-8.05L2.15-8.05Q2.15-9.15 2.88-9.93 3.6-10.7 5-10.7L5-10.7Q6.05-10.7 10.05-9.38 14.05-8.05 16.5-8.05L16.5-8.05Q18.75-8.05 18.75-9.6L18.75-9.6Q18.75-10.05 18.57-10.43 18.4-10.8 17.98-11.18 17.55-11.55 17.03-11.88 16.5-12.2 15.58-12.7 14.65-13.2 13.73-13.7 12.8-14.2 11.3-15 9.8-15.8 8.4-16.6L8.4-16.6Q6.55-17.65 5.23-19.2 3.9-20.75 3.3-22.28 2.7-23.8 2.7-25.1L2.7-25.1Q2.7-29.3 6.45-31.95 10.2-34.6 17.1-34.6ZM47.9-19.7L47.95-10.55Q47.95-7.7 50.15-7.7L50.15-7.7Q50.9-7.7 51.47-8.18 52.05-8.65 52.35-9.5 52.65-10.35 52.65-11.45L52.65-11.45 52.65-18.15Q52.65-19.85 53.25-21.13 53.85-22.4 55-23.1 56.15-23.8 57.7-23.8L57.7-23.8Q60.4-23.8 61.9-22.63 63.4-21.45 63.4-18.3L63.4-18.3 63.4-5.3Q63.4-2.25 62.15-1.1 60.9 0.05 57.75 0.05L57.75 0.05Q56.4 0.05 55.45-0.23 54.5-0.5 53.92-1.05 53.35-1.6 53.05-2.5L53.05-2.5Q51-1.15 48.72-0.6 46.45-0.05 43.65-0.05L43.65-0.05Q40.1-0.05 38.55-2.83 37-5.6 37-11.95L37-11.95Q37-15.1 37.15-17.07 37.3-19.05 37.62-20.48 37.95-21.9 38.62-22.6 39.3-23.3 40.22-23.6 41.15-23.9 42.65-23.9L42.65-23.9Q45.45-23.9 46.67-22.85 47.9-21.8 47.9-19.7L47.9-19.7ZM79.3-28.65L79.3-21.8Q82.6-24.25 86.45-24.25L86.45-24.25Q90.35-24.25 92.95-20.95 95.55-17.65 95.55-12.6L95.55-12.6Q95.55-6.5 91.6-3.08 87.65 0.35 81.35 0.35L81.35 0.35Q77.5 0.35 74.62-0.75 71.75-1.85 70.12-4.05 68.5-6.25 68.45-9.35L68.45-9.35 68.35-28.2Q68.35-31.3 69.85-32.75 71.35-34.2 73.85-34.2L73.85-34.2Q76.65-34.2 77.97-32.88 79.3-31.55 79.3-28.65L79.3-28.65ZM79.35-7.65L79.35-7.65Q80.25-5.95 81.85-5.95L81.85-5.95Q83.2-5.95 83.95-7.65 84.7-9.35 84.7-11.55L84.7-11.55Q84.7-12.75 84.5-13.9 84.3-15.05 83.95-15.98 83.6-16.9 83.05-17.48 82.5-18.05 81.8-18.05L81.8-18.05Q80.25-18.05 79.35-16.2L79.35-16.2Q79.35-15.55 79.35-12.48 79.35-9.4 79.35-7.65ZM110.69-28.7L110.69-7.55Q110.69-3.5 109.34-1.75 107.99 0 105.19 0L105.19 0Q102.39 0 101.09-1.58 99.79-3.15 99.79-7.15L99.79-7.15 99.69-28.25Q99.69-29.55 99.97-30.55 100.24-31.55 100.72-32.25 101.19-32.95 101.89-33.4 102.59-33.85 103.42-34.05 104.24-34.25 105.19-34.25L105.19-34.25Q107.94-34.25 109.32-33.15 110.69-32.05 110.69-28.7L110.69-28.7ZM115.14-30.8L115.14-30.8Q115.14-32.45 116.57-33.52 117.99-34.6 120.59-34.6L120.59-34.6Q126.04-34.6 126.04-30.8L126.04-30.8Q126.04-28.7 124.67-27.85 123.29-27 120.59-27L120.59-27Q118.24-27 116.69-27.9 115.14-28.8 115.14-30.8ZM125.99-18.35L125.99-5.35Q125.99-2.35 124.74-1.18 123.49 0 120.34 0L120.34 0Q117.39 0 116.32-1.38 115.24-2.75 115.24-5.9L115.24-5.9 115.24-18.2Q115.24-20.75 116.62-22.3 117.99-23.85 120.29-23.85L120.29-23.85Q122.99-23.85 124.49-22.68 125.99-21.5 125.99-18.35L125.99-18.35ZM160.19-4.15L160.19-13.2Q160.19-16 157.94-16L157.94-16Q156.94-16 156.44-14.85 155.94-13.7 155.94-11.95L155.94-11.95Q155.94-9.3 155.86-7.55 155.79-5.8 155.54-4.4 155.29-3 154.94-2.2 154.59-1.4 153.99-0.88 153.39-0.35 152.64-0.18 151.89 0 150.74 0L150.74 0Q148.99 0 147.91-0.5 146.84-1 146.39-1.9 145.94-2.8 145.94-4.15L145.94-4.15 145.94-13.2Q145.94-16 143.69-16L143.69-16Q142.79-16 142.21-14.98 141.64-13.95 141.64-12.3L141.64-12.3 141.64-5.35Q141.64-2.35 140.39-1.18 139.14 0 135.99 0L135.99 0Q133.04 0 131.96-1.38 130.89-2.75 130.89-5.9L130.89-5.9 130.89-18.2Q130.89-20.75 132.26-22.3 133.64-23.85 135.94-23.85L135.94-23.85Q140.04-23.85 141.14-21.2L141.14-21.2Q143.04-22.6 144.86-23.15 146.69-23.7 149.14-23.7L149.14-23.7Q152.84-23.7 154.49-20.5L154.49-20.5Q154.74-20.7 154.99-20.9L154.99-20.9Q158.84-23.7 164.44-23.7L164.44-23.7Q167.99-23.7 169.54-21 171.09-18.3 171.09-11.95L171.09-11.95Q171.09-9.3 171.01-7.55 170.94-5.8 170.69-4.4 170.44-3 170.06-2.2 169.69-1.4 169.01-0.88 168.34-0.35 167.51-0.18 166.69 0 165.44 0L165.44 0Q163.54 0 162.36-0.5 161.19-1 160.69-1.9 160.19-2.8 160.19-4.15L160.19-4.15ZM189.54 0.3L189.54 0.3Q183.44 0.3 179.46-2.85 175.49-6 175.49-11.45L175.49-11.45Q175.49-17.35 179.41-20.78 183.34-24.2 189.54-24.2L189.54-24.2Q195.39-24.2 198.11-22.13 200.84-20.05 200.84-16.45L200.84-16.45Q200.84-15.75 200.66-15.1 200.49-14.45 200.11-13.83 199.74-13.2 199.11-12.68 198.49-12.15 197.69-11.73 196.89-11.3 195.79-11.08 194.69-10.85 193.44-10.85L193.44-10.85 186.39-10.8Q186.89-9.2 188.19-8.28 189.49-7.35 191.49-7.35L191.49-7.35Q193.64-7.35 195.89-7.9L195.89-7.9Q196.84-8.15 197.96-8.7 199.09-9.25 199.59-9.25L199.59-9.25Q200.44-9.25 200.91-8.75 201.39-8.25 201.39-7.5L201.39-7.5Q201.39-6.6 200.59-5.33 199.79-4.05 198.36-2.78 196.94-1.5 194.59-0.6 192.24 0.3 189.54 0.3ZM186.14-14L186.14-14Q189.59-14.05 189.89-14.05L189.89-14.05Q190.64-14.05 190.99-14.95L190.99-14.95Q191.24-15.6 191.24-16.75L191.24-16.75Q191.24-19.9 189.34-19.9L189.34-19.9Q188.64-19.9 187.96-19.15 187.29-18.4 186.79-17.03 186.29-15.65 186.14-14ZM221.53-10.7L221.53-10.7 221.53-16.6Q220.28-16.65 219.53-17.03 218.78-17.4 218.46-18 218.13-18.6 218.13-19.5L218.13-19.5Q218.13-22.35 221.58-22.6L221.58-22.6 221.58-27.25Q221.58-29.15 224.33-30.68 227.08-32.2 229.78-32.2L229.78-32.2Q231.43-32.2 231.93-31.25 232.43-30.3 232.43-28.4L232.43-28.4 232.48-22.65 233.83-22.65Q236.58-22.65 237.61-21.93 238.63-21.2 238.63-19.3L238.63-19.3Q238.63-18.5 238.33-17.95 238.03-17.4 237.36-17.1 236.68-16.8 235.73-16.68 234.78-16.55 233.38-16.55L233.38-16.55 232.48-16.55 232.48-11.05Q232.48-10.25 232.56-9.73 232.63-9.2 232.78-8.9 232.93-8.6 233.21-8.5 233.48-8.4 233.88-8.4L233.88-8.4Q234.48-8.4 234.88-8.83 235.28-9.25 235.51-9.78 235.73-10.3 236.11-10.73 236.48-11.15 236.98-11.15L236.98-11.15Q238.13-11.15 238.76-10.6 239.38-10.05 239.38-9.25L239.38-9.25Q239.38-7.9 238.86-6.35 238.33-4.8 237.33-3.35 236.33-1.9 234.56-0.95 232.78 0 230.58 0L230.58 0Q225.63 0 223.58-2.5 221.53-5 221.53-10.7ZM254.83-15.4L254.83-5.35Q254.83-2.35 253.58-1.18 252.33 0 249.13 0L249.13 0Q246.18 0 245.13-1.38 244.08-2.75 244.08-5.9L244.08-5.9 244.08-18.2Q244.08-19.9 244.68-21.18 245.28-22.45 246.43-23.15 247.58-23.85 249.13-23.85L249.13-23.85Q252.93-23.85 254.13-21.65L254.13-21.65Q257.03-23.85 259.73-23.85L259.73-23.85Q264.98-23.85 264.98-18.85L264.98-18.85Q264.98-16.85 263.83-15.6 262.68-14.35 260.83-14.35L260.83-14.35Q259.73-14.35 259.05-14.8 258.38-15.25 257.8-15.7 257.23-16.15 256.48-16.15L256.48-16.15Q255.38-16.15 254.83-15.4L254.83-15.4ZM276.13 0.3L276.13 0.3Q272.18 0.3 269.58-2.93 266.98-6.15 266.98-11.75L266.98-11.75Q266.98-17.45 269.55-20.83 272.13-24.2 276.13-24.2L276.13-24.2Q280.18-24.2 283.63-21.35L283.63-21.35Q284.98-23.85 287.98-23.85L287.98-23.85Q290.68-23.85 292.18-22.68 293.68-21.5 293.68-18.35L293.68-18.35 293.68-5.35Q293.68-2.35 292.43-1.18 291.18 0 288.03 0L288.03 0Q284.73 0 283.68-1.85L283.68-1.85Q280.48 0.3 276.13 0.3ZM282.93-7.2L282.93-16.55Q282.08-18 280.73-18L280.73-18Q279.43-18 278.63-16.1 277.83-14.2 277.83-11.75L277.83-11.75Q277.83-9.45 278.58-7.65 279.33-5.85 280.68-5.85L280.68-5.85Q282.08-5.85 282.93-7.2L282.93-7.2ZM311.42-7.5L311.42-7.5Q312.87-7.5 313.27-8.33 313.67-9.15 313.67-11.35L313.67-11.35 313.72-19.4Q313.72-20.95 314.25-21.9 314.77-22.85 316.02-23.35 317.27-23.85 319.37-23.85L319.37-23.85Q320.72-23.85 321.57-23.55 322.42-23.25 323.07-22.58 323.72-21.9 324.02-20.53 324.32-19.15 324.47-17.23 324.62-15.3 324.62-12.35L324.62-12.35Q324.62-9.65 323.77-7.5 322.92-5.35 321.6-3.98 320.27-2.6 318.52-1.68 316.77-0.75 315.02-0.38 313.27 0 311.5 0 309.72 0 307.97-0.38 306.22-0.75 304.45-1.68 302.67-2.6 301.32-3.98 299.97-5.35 299.12-7.5 298.27-9.65 298.27-12.35L298.27-12.35Q298.27-17.25 298.72-19.63 299.17-22 300.25-22.93 301.32-23.85 303.52-23.85L303.52-23.85Q306.62-23.85 307.92-22.78 309.22-21.7 309.22-19.4L309.22-19.4 309.27-11.4Q309.27-10.6 309.27-10.23 309.27-9.85 309.32-9.3 309.37-8.75 309.52-8.5 309.67-8.25 309.9-7.98 310.12-7.7 310.5-7.6 310.87-7.5 311.42-7.5ZM342.97 0.3L342.97 0.3Q336.87 0.3 332.9-2.85 328.92-6 328.92-11.45L328.92-11.45Q328.92-17.35 332.85-20.78 336.77-24.2 342.97-24.2L342.97-24.2Q348.82-24.2 351.55-22.13 354.27-20.05 354.27-16.45L354.27-16.45Q354.27-15.75 354.1-15.1 353.92-14.45 353.55-13.83 353.17-13.2 352.55-12.68 351.92-12.15 351.12-11.73 350.32-11.3 349.22-11.08 348.12-10.85 346.87-10.85L346.87-10.85 339.82-10.8Q340.32-9.2 341.62-8.28 342.92-7.35 344.92-7.35L344.92-7.35Q347.07-7.35 349.32-7.9L349.32-7.9Q350.27-8.15 351.4-8.7 352.52-9.25 353.02-9.25L353.02-9.25Q353.87-9.25 354.35-8.75 354.82-8.25 354.82-7.5L354.82-7.5Q354.82-6.6 354.02-5.33 353.22-4.05 351.8-2.78 350.37-1.5 348.02-0.6 345.67 0.3 342.97 0.3ZM339.57-14L339.57-14Q343.02-14.05 343.32-14.05L343.32-14.05Q344.07-14.05 344.42-14.95L344.42-14.95Q344.67-15.6 344.67-16.75L344.67-16.75Q344.67-19.9 342.77-19.9L342.77-19.9Q342.07-19.9 341.4-19.15 340.72-18.4 340.22-17.03 339.72-15.65 339.57-14ZM369.97-28.7L369.97-7.55Q369.97-3.5 368.62-1.75 367.27 0 364.47 0L364.47 0Q361.67 0 360.37-1.58 359.07-3.15 359.07-7.15L359.07-7.15 358.97-28.25Q358.97-29.55 359.24-30.55 359.52-31.55 359.99-32.25 360.47-32.95 361.17-33.4 361.87-33.85 362.69-34.05 363.52-34.25 364.47-34.25L364.47-34.25Q367.22-34.25 368.59-33.15 369.97-32.05 369.97-28.7L369.97-28.7Z" opacity="1" transform="matrix(1,0,0,1,0,0)" fill="black" class="wordmark-text-0" id="SvgjsPath1284" stroke-width="7" stroke="black" stroke-linejoin="round"></path></svg></g></svg></g></svg></g></svg></g><g></g></svg></g></svg></g></svg></g></mask><g transform="matrix(1,0,0,1,39.55199999999999,105.89471628651461)"><svg viewBox="0 0 316.416 35.410567426970786" height="35.410567426970786" width="316.416"><g><svg viewBox="0 0 316.416 35.410567426970786" height="35.410567426970786" width="316.416"><g><svg viewBox="0 0 316.416 35.410567426970786" height="35.410567426970786" width="316.416"><g><svg viewBox="0 0 316.416 35.410567426970786" height="35.410567426970786" width="316.416"><g id="textblocktransform"><svg viewBox="0 0 316.416 35.410567426970786" height="35.410567426970786" width="316.416" id="textblock"><g><svg viewBox="0 0 316.416 35.410567426970786" height="35.410567426970786" width="316.416"><g transform="matrix(1,0,0,1,0,0)"><svg width="316.416" viewBox="-1.85 -38.6 375.82000000000005 42.95" height="35.410567426970786" data-palette-color="#ffffff"><path d="M17.1-34.6L17.1-34.6Q23.05-34.6 27.25-32.15 31.45-29.7 31.45-26.95L31.45-26.95Q31.45-26.2 31.13-25.68 30.8-25.15 30.33-24.93 29.85-24.7 29.3-24.7L29.3-24.7Q28.4-24.7 26.6-25.63 24.8-26.55 22.6-27.48 20.4-28.4 18.55-28.4L18.55-28.4Q15.6-28.4 15.6-26L15.6-26Q15.6-25.25 16.07-24.58 16.55-23.9 17.6-23.18 18.65-22.45 19.65-21.9 20.65-21.35 22.4-20.43 24.15-19.5 25.35-18.8L25.35-18.8Q29.2-16.6 30.75-14.6 32.3-12.6 32.3-10L32.3-10Q32.3 0.35 18.35 0.35L18.35 0.35Q15.6 0.35 13.03-0.2 10.45-0.75 8.53-1.65 6.6-2.55 5.13-3.65 3.65-4.75 2.9-5.9 2.15-7.05 2.15-8.05L2.15-8.05Q2.15-9.15 2.88-9.93 3.6-10.7 5-10.7L5-10.7Q6.05-10.7 10.05-9.38 14.05-8.05 16.5-8.05L16.5-8.05Q18.75-8.05 18.75-9.6L18.75-9.6Q18.75-10.05 18.57-10.43 18.4-10.8 17.98-11.18 17.55-11.55 17.03-11.88 16.5-12.2 15.58-12.7 14.65-13.2 13.73-13.7 12.8-14.2 11.3-15 9.8-15.8 8.4-16.6L8.4-16.6Q6.55-17.65 5.23-19.2 3.9-20.75 3.3-22.28 2.7-23.8 2.7-25.1L2.7-25.1Q2.7-29.3 6.45-31.95 10.2-34.6 17.1-34.6ZM47.9-19.7L47.95-10.55Q47.95-7.7 50.15-7.7L50.15-7.7Q50.9-7.7 51.47-8.18 52.05-8.65 52.35-9.5 52.65-10.35 52.65-11.45L52.65-11.45 52.65-18.15Q52.65-19.85 53.25-21.13 53.85-22.4 55-23.1 56.15-23.8 57.7-23.8L57.7-23.8Q60.4-23.8 61.9-22.63 63.4-21.45 63.4-18.3L63.4-18.3 63.4-5.3Q63.4-2.25 62.15-1.1 60.9 0.05 57.75 0.05L57.75 0.05Q56.4 0.05 55.45-0.23 54.5-0.5 53.92-1.05 53.35-1.6 53.05-2.5L53.05-2.5Q51-1.15 48.72-0.6 46.45-0.05 43.65-0.05L43.65-0.05Q40.1-0.05 38.55-2.83 37-5.6 37-11.95L37-11.95Q37-15.1 37.15-17.07 37.3-19.05 37.62-20.48 37.95-21.9 38.62-22.6 39.3-23.3 40.22-23.6 41.15-23.9 42.65-23.9L42.65-23.9Q45.45-23.9 46.67-22.85 47.9-21.8 47.9-19.7L47.9-19.7ZM79.3-28.65L79.3-21.8Q82.6-24.25 86.45-24.25L86.45-24.25Q90.35-24.25 92.95-20.95 95.55-17.65 95.55-12.6L95.55-12.6Q95.55-6.5 91.6-3.08 87.65 0.35 81.35 0.35L81.35 0.35Q77.5 0.35 74.62-0.75 71.75-1.85 70.12-4.05 68.5-6.25 68.45-9.35L68.45-9.35 68.35-28.2Q68.35-31.3 69.85-32.75 71.35-34.2 73.85-34.2L73.85-34.2Q76.65-34.2 77.97-32.88 79.3-31.55 79.3-28.65L79.3-28.65ZM79.35-7.65L79.35-7.65Q80.25-5.95 81.85-5.95L81.85-5.95Q83.2-5.95 83.95-7.65 84.7-9.35 84.7-11.55L84.7-11.55Q84.7-12.75 84.5-13.9 84.3-15.05 83.95-15.98 83.6-16.9 83.05-17.48 82.5-18.05 81.8-18.05L81.8-18.05Q80.25-18.05 79.35-16.2L79.35-16.2Q79.35-15.55 79.35-12.48 79.35-9.4 79.35-7.65ZM110.69-28.7L110.69-7.55Q110.69-3.5 109.34-1.75 107.99 0 105.19 0L105.19 0Q102.39 0 101.09-1.58 99.79-3.15 99.79-7.15L99.79-7.15 99.69-28.25Q99.69-29.55 99.97-30.55 100.24-31.55 100.72-32.25 101.19-32.95 101.89-33.4 102.59-33.85 103.42-34.05 104.24-34.25 105.19-34.25L105.19-34.25Q107.94-34.25 109.32-33.15 110.69-32.05 110.69-28.7L110.69-28.7ZM115.14-30.8L115.14-30.8Q115.14-32.45 116.57-33.52 117.99-34.6 120.59-34.6L120.59-34.6Q126.04-34.6 126.04-30.8L126.04-30.8Q126.04-28.7 124.67-27.85 123.29-27 120.59-27L120.59-27Q118.24-27 116.69-27.9 115.14-28.8 115.14-30.8ZM125.99-18.35L125.99-5.35Q125.99-2.35 124.74-1.18 123.49 0 120.34 0L120.34 0Q117.39 0 116.32-1.38 115.24-2.75 115.24-5.9L115.24-5.9 115.24-18.2Q115.24-20.75 116.62-22.3 117.99-23.85 120.29-23.85L120.29-23.85Q122.99-23.85 124.49-22.68 125.99-21.5 125.99-18.35L125.99-18.35ZM160.19-4.15L160.19-13.2Q160.19-16 157.94-16L157.94-16Q156.94-16 156.44-14.85 155.94-13.7 155.94-11.95L155.94-11.95Q155.94-9.3 155.86-7.55 155.79-5.8 155.54-4.4 155.29-3 154.94-2.2 154.59-1.4 153.99-0.88 153.39-0.35 152.64-0.18 151.89 0 150.74 0L150.74 0Q148.99 0 147.91-0.5 146.84-1 146.39-1.9 145.94-2.8 145.94-4.15L145.94-4.15 145.94-13.2Q145.94-16 143.69-16L143.69-16Q142.79-16 142.21-14.98 141.64-13.95 141.64-12.3L141.64-12.3 141.64-5.35Q141.64-2.35 140.39-1.18 139.14 0 135.99 0L135.99 0Q133.04 0 131.96-1.38 130.89-2.75 130.89-5.9L130.89-5.9 130.89-18.2Q130.89-20.75 132.26-22.3 133.64-23.85 135.94-23.85L135.94-23.85Q140.04-23.85 141.14-21.2L141.14-21.2Q143.04-22.6 144.86-23.15 146.69-23.7 149.14-23.7L149.14-23.7Q152.84-23.7 154.49-20.5L154.49-20.5Q154.74-20.7 154.99-20.9L154.99-20.9Q158.84-23.7 164.44-23.7L164.44-23.7Q167.99-23.7 169.54-21 171.09-18.3 171.09-11.95L171.09-11.95Q171.09-9.3 171.01-7.55 170.94-5.8 170.69-4.4 170.44-3 170.06-2.2 169.69-1.4 169.01-0.88 168.34-0.35 167.51-0.18 166.69 0 165.44 0L165.44 0Q163.54 0 162.36-0.5 161.19-1 160.69-1.9 160.19-2.8 160.19-4.15L160.19-4.15ZM189.54 0.3L189.54 0.3Q183.44 0.3 179.46-2.85 175.49-6 175.49-11.45L175.49-11.45Q175.49-17.35 179.41-20.78 183.34-24.2 189.54-24.2L189.54-24.2Q195.39-24.2 198.11-22.13 200.84-20.05 200.84-16.45L200.84-16.45Q200.84-15.75 200.66-15.1 200.49-14.45 200.11-13.83 199.74-13.2 199.11-12.68 198.49-12.15 197.69-11.73 196.89-11.3 195.79-11.08 194.69-10.85 193.44-10.85L193.44-10.85 186.39-10.8Q186.89-9.2 188.19-8.28 189.49-7.35 191.49-7.35L191.49-7.35Q193.64-7.35 195.89-7.9L195.89-7.9Q196.84-8.15 197.96-8.7 199.09-9.25 199.59-9.25L199.59-9.25Q200.44-9.25 200.91-8.75 201.39-8.25 201.39-7.5L201.39-7.5Q201.39-6.6 200.59-5.33 199.79-4.05 198.36-2.78 196.94-1.5 194.59-0.6 192.24 0.3 189.54 0.3ZM186.14-14L186.14-14Q189.59-14.05 189.89-14.05L189.89-14.05Q190.64-14.05 190.99-14.95L190.99-14.95Q191.24-15.6 191.24-16.75L191.24-16.75Q191.24-19.9 189.34-19.9L189.34-19.9Q188.64-19.9 187.96-19.15 187.29-18.4 186.79-17.03 186.29-15.65 186.14-14ZM221.53-10.7L221.53-10.7 221.53-16.6Q220.28-16.65 219.53-17.03 218.78-17.4 218.46-18 218.13-18.6 218.13-19.5L218.13-19.5Q218.13-22.35 221.58-22.6L221.58-22.6 221.58-27.25Q221.58-29.15 224.33-30.68 227.08-32.2 229.78-32.2L229.78-32.2Q231.43-32.2 231.93-31.25 232.43-30.3 232.43-28.4L232.43-28.4 232.48-22.65 233.83-22.65Q236.58-22.65 237.61-21.93 238.63-21.2 238.63-19.3L238.63-19.3Q238.63-18.5 238.33-17.95 238.03-17.4 237.36-17.1 236.68-16.8 235.73-16.68 234.78-16.55 233.38-16.55L233.38-16.55 232.48-16.55 232.48-11.05Q232.48-10.25 232.56-9.73 232.63-9.2 232.78-8.9 232.93-8.6 233.21-8.5 233.48-8.4 233.88-8.4L233.88-8.4Q234.48-8.4 234.88-8.83 235.28-9.25 235.51-9.78 235.73-10.3 236.11-10.73 236.48-11.15 236.98-11.15L236.98-11.15Q238.13-11.15 238.76-10.6 239.38-10.05 239.38-9.25L239.38-9.25Q239.38-7.9 238.86-6.35 238.33-4.8 237.33-3.35 236.33-1.9 234.56-0.95 232.78 0 230.58 0L230.58 0Q225.63 0 223.58-2.5 221.53-5 221.53-10.7ZM254.83-15.4L254.83-5.35Q254.83-2.35 253.58-1.18 252.33 0 249.13 0L249.13 0Q246.18 0 245.13-1.38 244.08-2.75 244.08-5.9L244.08-5.9 244.08-18.2Q244.08-19.9 244.68-21.18 245.28-22.45 246.43-23.15 247.58-23.85 249.13-23.85L249.13-23.85Q252.93-23.85 254.13-21.65L254.13-21.65Q257.03-23.85 259.73-23.85L259.73-23.85Q264.98-23.85 264.98-18.85L264.98-18.85Q264.98-16.85 263.83-15.6 262.68-14.35 260.83-14.35L260.83-14.35Q259.73-14.35 259.05-14.8 258.38-15.25 257.8-15.7 257.23-16.15 256.48-16.15L256.48-16.15Q255.38-16.15 254.83-15.4L254.83-15.4ZM276.13 0.3L276.13 0.3Q272.18 0.3 269.58-2.93 266.98-6.15 266.98-11.75L266.98-11.75Q266.98-17.45 269.55-20.83 272.13-24.2 276.13-24.2L276.13-24.2Q280.18-24.2 283.63-21.35L283.63-21.35Q284.98-23.85 287.98-23.85L287.98-23.85Q290.68-23.85 292.18-22.68 293.68-21.5 293.68-18.35L293.68-18.35 293.68-5.35Q293.68-2.35 292.43-1.18 291.18 0 288.03 0L288.03 0Q284.73 0 283.68-1.85L283.68-1.85Q280.48 0.3 276.13 0.3ZM282.93-7.2L282.93-16.55Q282.08-18 280.73-18L280.73-18Q279.43-18 278.63-16.1 277.83-14.2 277.83-11.75L277.83-11.75Q277.83-9.45 278.58-7.65 279.33-5.85 280.68-5.85L280.68-5.85Q282.08-5.85 282.93-7.2L282.93-7.2ZM311.42-7.5L311.42-7.5Q312.87-7.5 313.27-8.33 313.67-9.15 313.67-11.35L313.67-11.35 313.72-19.4Q313.72-20.95 314.25-21.9 314.77-22.85 316.02-23.35 317.27-23.85 319.37-23.85L319.37-23.85Q320.72-23.85 321.57-23.55 322.42-23.25 323.07-22.58 323.72-21.9 324.02-20.53 324.32-19.15 324.47-17.23 324.62-15.3 324.62-12.35L324.62-12.35Q324.62-9.65 323.77-7.5 322.92-5.35 321.6-3.98 320.27-2.6 318.52-1.68 316.77-0.75 315.02-0.38 313.27 0 311.5 0 309.72 0 307.97-0.38 306.22-0.75 304.45-1.68 302.67-2.6 301.32-3.98 299.97-5.35 299.12-7.5 298.27-9.65 298.27-12.35L298.27-12.35Q298.27-17.25 298.72-19.63 299.17-22 300.25-22.93 301.32-23.85 303.52-23.85L303.52-23.85Q306.62-23.85 307.92-22.78 309.22-21.7 309.22-19.4L309.22-19.4 309.27-11.4Q309.27-10.6 309.27-10.23 309.27-9.85 309.32-9.3 309.37-8.75 309.52-8.5 309.67-8.25 309.9-7.98 310.12-7.7 310.5-7.6 310.87-7.5 311.42-7.5ZM342.97 0.3L342.97 0.3Q336.87 0.3 332.9-2.85 328.92-6 328.92-11.45L328.92-11.45Q328.92-17.35 332.85-20.78 336.77-24.2 342.97-24.2L342.97-24.2Q348.82-24.2 351.55-22.13 354.27-20.05 354.27-16.45L354.27-16.45Q354.27-15.75 354.1-15.1 353.92-14.45 353.55-13.83 353.17-13.2 352.55-12.68 351.92-12.15 351.12-11.73 350.32-11.3 349.22-11.08 348.12-10.85 346.87-10.85L346.87-10.85 339.82-10.8Q340.32-9.2 341.62-8.28 342.92-7.35 344.92-7.35L344.92-7.35Q347.07-7.35 349.32-7.9L349.32-7.9Q350.27-8.15 351.4-8.7 352.52-9.25 353.02-9.25L353.02-9.25Q353.87-9.25 354.35-8.75 354.82-8.25 354.82-7.5L354.82-7.5Q354.82-6.6 354.02-5.33 353.22-4.05 351.8-2.78 350.37-1.5 348.02-0.6 345.67 0.3 342.97 0.3ZM339.57-14L339.57-14Q343.02-14.05 343.32-14.05L343.32-14.05Q344.07-14.05 344.42-14.95L344.42-14.95Q344.67-15.6 344.67-16.75L344.67-16.75Q344.67-19.9 342.77-19.9L342.77-19.9Q342.07-19.9 341.4-19.15 340.72-18.4 340.22-17.03 339.72-15.65 339.57-14ZM369.97-28.7L369.97-7.55Q369.97-3.5 368.62-1.75 367.27 0 364.47 0L364.47 0Q361.67 0 360.37-1.58 359.07-3.15 359.07-7.15L359.07-7.15 358.97-28.25Q358.97-29.55 359.24-30.55 359.52-31.55 359.99-32.25 360.47-32.95 361.17-33.4 361.87-33.85 362.69-34.05 363.52-34.25 364.47-34.25L364.47-34.25Q367.22-34.25 368.59-33.15 369.97-32.05 369.97-28.7L369.97-28.7Z" opacity="1" transform="matrix(1,0,0,1,0,0)" fill="#ffffff" class="wordmark-text-0" data-fill-palette-color="primary" id="text-0"></path></svg></g></svg></g></svg></g></svg></g><g></g></svg></g></svg></g></svg></g><g mask="url(#13039ab0-5639-41fc-8dcd-d17e9c995776)"><g transform="matrix(2.724494507643532, 0, 0, 2.724494507643532, 124.30846539950706, 1)"><svg xmlns="http://www.w3.org/2000/svg" xmlns:xlink="http://www.w3.org/1999/xlink" version="1.1" x="0" y="0" viewBox="24.449035868661355 8.367000163494922 53.91938533509659 89.99834622976657" enable-background="new 21.454 3.367 59.909 100" xml:space="preserve" height="89.99834622976657" width="53.91938533509659" class="icon-none" data-fill-palette-color="accent" id="none"><path d="M78.201 87.271l-8.846-24.826c-0.513-1.441-2.067-2.225-3.531-1.784l-6.495 1.957c-0.931 0.281-1.609 0.992-1.892 1.85l-2.565-7.764c0.624-0.002 1.247-0.22 1.735-0.667 1.075-0.96 1.042-2.515 0.198-3.683-0.616-0.852-1.25-2.171-2.16-3.61-3.706-5.858-8.607-22.055-8.607-22.055-0.045-0.088-0.104-0.169-0.168-0.246-0.658-1.404-2.193-2.138-4.042-2.424-2.662-0.413-5.012 0.22-5.586 3.13l-4.675 28.365c-0.48 2.433-0.747 3.667-0.782 4.956-0.129 4.67-3.379 34.923-3.379 34.923-0.128 1.005 0.816 2.775 2.237 2.957 1.42 0.182 2.779-1.295 2.908-2.3l10.223-37.603c0.001-0.02-0.014-0.031-0.017-0.049 0.092-0.355 0.17-0.742 0.221-1.198l1.58-14.228c2.175 4.065 4.644 8.332 6.573 10.717 0.145 0.179 0.418 0.51 0.708 0.859l-0.816 0.284 0.772 2.217 0.152-0.053 11.604 35.114c-0.885 0.611-1.467 1.631-1.467 2.789 0 1.873 1.518 3.391 3.391 3.391 1.873 0 3.391-1.518 3.391-3.391 0-0.561-0.149-1.083-0.391-1.549 0.053-0.013 0.106-0.02 0.159-0.035l7.698-2.335C77.899 90.505 78.751 88.815 78.201 87.271z" fill="#ffffff" data-fill-palette-color="accent"></path><circle cx="42.221" cy="15.511" r="7.1" fill="#ffffff" data-fill-palette-color="accent"></circle><path d="M49.063 94.18l-5.627-34.193L38.831 76.92l5.241 18.671c0.275 0.974 1.838 2.234 3.215 1.844C48.667 97.045 49.338 95.154 49.063 94.18z" fill="#ffffff" data-fill-palette-color="accent"></path><path d="M32.773 40.885l0.082-0.556c0.638-4.34 1.113-7.443 1.432-9.373-1.913 3.663-5.663 10.882-8.988 17.531-0.265 0.531-1.313 2.863-0.613 4.038 0.288 0.484 0.82 0.769 1.41 0.93 1.818 0.497 4.345-4.079 4.843-5.026 0.367-0.698 0.722-1.364 1.068-2.009l0.49-2.977C32.59 42.416 32.683 41.48 32.773 40.885z" fill="#ffffff" data-fill-palette-color="accent"></path></svg></g></g></svg></g><defs></defs></svg><rect width="395.52" height="247.2" fill="none" stroke="none" visibility="hidden"></rect></g></svg></g></svg>