<?xml version="1.0" encoding="UTF-8" standalone="no"?>
<!DOCTYPE svg PUBLIC "-//W3C//DTD SVG 1.1//EN" "http://www.w3.org/Graphics/SVG/1.1/DTD/svg11.dtd">
<svg xmlns="http://www.w3.org/2000/svg" version="1.1" viewBox="0.00 0.00 1500.00 935.00">
<circle fill="#ffffff" cx="655.24" cy="77.08" r="73.19"/>
<path fill="#ffffff" d="
  M 679.21 361.24
  L 670.86 436.46
  Q 670.80 436.98 670.29 437.07
  Q 661.60 438.57 654.24 442.25
  Q 653.70 442.52 653.23 442.14
  Q 645.15 435.74 633.15 436.05
  Q 621.06 436.36 612.62 440.42
  Q 612.09 440.67 611.60 440.37
  Q 601.65 434.27 589.27 435.93
  Q 577.61 437.50 570.77 448.36
  Q 570.39 448.95 570.09 448.32
  Q 568.61 445.23 566.01 442.89
  Q 565.50 442.43 566.03 441.99
  Q 570.81 438.01 572.36 432.79
  C 575.89 420.96 571.85 409.45 560.01 404.50
  Q 559.47 404.27 559.56 403.69
  Q 576.50 300.83 593.48 198.01
  C 597.08 176.23 612.57 164.12 634.30 163.76
  C 653.98 163.44 681.55 168.85 691.64 187.55
  C 692.80 189.71 694.33 191.55 695.05 193.89
  C 711.84 248.53 731.68 306.31 753.73 359.66
  C 762.56 381.01 772.42 402.00 784.45 421.72
  Q 792.28 434.54 800.56 449.34
  Q 800.90 449.96 800.47 449.40
  C 790.76 436.64 773.54 434.08 758.48 434.53
  Q 741.11 435.05 728.25 443.25
  Q 727.72 443.59 727.38 443.06
  C 710.29 416.49 694.69 388.97 679.85 361.12
  Q 679.33 360.15 679.21 361.24
  Z"
/>
<path fill="#ffffff" d="
  M 487.28 404.29
  C 515.25 348.40 543.95 292.85 572.93 237.40
  Q 573.35 236.60 573.21 237.49
  Q 565.60 285.32 557.90 338.00
  Q 556.68 346.40 555.84 355.83
  C 554.69 368.74 552.23 381.90 549.95 394.77
  Q 549.49 397.37 546.76 401.59
  Q 546.49 402.01 546.00 402.01
  C 536.35 402.01 527.47 404.82 521.54 412.81
  Q 521.20 413.27 520.87 412.80
  C 513.83 402.96 498.33 401.43 487.57 404.63
  Q 487.02 404.79 487.28 404.29
  Z"
/>
<path fill="#ffffff" d="
  M 244.99 437.42
  C 238.76 434.49 227.81 429.82 221.11 433.67
  C 216.81 436.13 217.27 442.41 220.52 445.50
  Q 224.64 449.40 230.25 452.39
  Q 239.57 457.35 248.86 462.58
  C 258.72 468.14 268.81 475.39 269.90 487.04
  C 271.58 505.07 261.17 516.90 243.93 520.34
  C 223.76 524.37 201.52 521.57 184.73 509.05
  C 180.58 505.96 175.14 500.04 176.21 494.37
  C 177.77 486.08 185.93 487.14 191.90 489.00
  Q 199.77 491.45 207.42 493.68
  C 211.66 494.92 225.52 498.43 227.57 492.52
  C 229.30 487.52 223.03 484.00 219.52 482.14
  Q 205.98 474.95 194.58 468.50
  C 186.15 463.73 178.41 453.45 177.87 443.60
  C 177.10 429.59 187.72 419.93 200.47 415.98
  Q 207.40 413.83 215.50 413.25
  C 232.23 412.05 251.08 415.01 263.28 427.50
  Q 267.08 431.40 267.39 436.50
  C 267.81 443.38 261.27 445.12 256.08 442.66
  Q 250.67 440.10 244.99 437.42
  Z"
/>
<path fill="#ffffff" d="
  M 529.36 421.43
  Q 531.58 415.14 540.24 413.51
  C 546.01 412.43 554.77 412.73 559.44 416.82
  C 563.48 420.36 563.99 429.38 559.43 433.17
  C 553.46 438.12 536.02 437.98 531.07 431.80
  Q 527.35 427.15 529.36 421.43
  Z"
/>
<path fill="#ffffff" d="
  M 490.24 519.72
  C 481.88 516.69 480.85 507.24 480.81 499.35
  Q 480.62 465.42 480.47 432.79
  C 480.39 417.31 490.97 411.57 505.08 414.97
  C 513.38 416.98 514.74 423.73 514.74 431.01
  Q 514.76 465.38 514.75 497.59
  C 514.75 506.70 513.19 518.42 502.17 520.45
  Q 495.59 521.66 490.24 519.72
  Z"
/>
<path fill="#ffffff" d="
  M 1315.58 415.39
  C 1323.26 417.75 1323.97 425.35 1323.97 432.22
  Q 1323.97 464.40 1323.96 497.24
  Q 1323.96 504.23 1322.35 510.10
  C 1319.88 519.15 1311.53 521.91 1303.07 520.64
  C 1291.80 518.95 1290.10 509.37 1290.03 499.89
  Q 1289.75 464.69 1289.72 431.82
  C 1289.70 416.00 1302.45 411.36 1315.58 415.39
  Z"
/>
<path fill="#ffffff" d="
  M 416.74 452.08
  Q 416.74 453.00 417.48 452.47
  C 429.09 444.33 444.90 441.73 455.94 451.88
  C 465.35 460.53 468.36 473.65 467.26 486.38
  C 465.48 506.84 450.22 519.47 430.59 521.54
  C 412.73 523.43 390.92 519.62 384.39 500.87
  Q 382.92 496.63 382.89 487.01
  Q 382.81 459.70 382.72 431.11
  Q 382.69 422.70 388.80 417.55
  C 393.37 413.70 402.05 413.55 407.67 415.40
  C 414.85 417.76 416.76 424.45 416.77 431.34
  Q 416.77 441.30 416.74 452.08
  Z
  M 433.39 479.82
  C 432.85 475.16 431.07 466.94 426.52 465.03
  C 422.30 463.26 416.91 467.50 416.94 471.95
  Q 416.99 483.33 416.93 495.53
  C 416.91 500.46 423.44 503.88 427.51 501.66
  C 433.57 498.36 434.11 486.07 433.39 479.82
  Z"
/>
<path fill="#ffffff" d="
  M 895.38 450.23
  C 903.59 450.43 914.56 449.08 913.99 461.22
  C 913.79 465.53 911.40 467.61 907.39 468.41
  C 903.49 469.20 899.51 469.35 895.49 469.21
  Q 894.89 469.19 894.88 469.80
  Q 894.76 479.60 895.01 488.94
  C 895.05 490.45 895.19 492.91 896.44 493.89
  C 899.87 496.55 903.22 493.27 904.56 490.06
  Q 906.84 484.62 912.40 486.74
  Q 916.63 488.35 916.35 492.93
  Q 915.86 500.88 911.37 508.30
  C 904.46 519.68 893.32 522.21 880.86 520.27
  C 864.86 517.78 860.90 504.31 860.77 489.82
  Q 860.69 480.59 860.77 469.78
  A 0.69 0.68 -87.8 0 0 860.14 469.09
  C 854.87 468.68 850.31 466.72 850.15 460.72
  Q 849.91 451.49 860.04 450.57
  Q 860.94 450.48 860.92 449.58
  Q 860.82 442.64 860.88 436.28
  Q 860.93 431.59 864.80 428.47
  Q 874.60 420.58 887.21 420.53
  C 893.25 420.50 894.56 425.56 894.65 430.55
  Q 894.82 440.33 894.76 449.60
  Q 894.76 450.21 895.38 450.23
  Z"
/>
<path fill="#ffffff" d="
  M 751.28 488.01
  C 754.39 495.93 761.22 498.44 769.24 497.99
  C 776.24 497.59 782.47 496.31 788.27 493.30
  Q 790.78 492.00 793.01 492.20
  C 799.35 492.75 798.16 499.69 795.79 503.46
  C 783.02 523.74 756.43 526.04 736.39 516.42
  C 721.68 509.36 715.44 495.42 717.42 479.31
  Q 720.04 458.00 740.72 449.12
  C 748.60 445.73 757.81 445.08 766.54 445.62
  C 779.38 446.41 793.48 450.83 795.76 465.56
  C 797.99 479.89 786.55 486.87 773.94 487.03
  Q 762.25 487.17 751.83 487.20
  Q 750.96 487.21 751.28 488.01
  Z
  M 766.18 469.25
  C 766.29 465.60 765.84 460.37 761.80 459.04
  C 754.23 456.55 750.78 472.04 750.32 476.70
  Q 750.27 477.27 750.84 477.27
  Q 756.19 477.26 761.85 477.14
  C 765.66 477.05 766.10 471.95 766.18 469.25
  Z"
/>
<path fill="#ffffff" d="
  M 1054.11 515.52
  Q 1040.30 523.59 1026.19 521.35
  C 1012.73 519.21 1004.92 506.01 1003.17 492.92
  C 1001.69 481.83 1002.79 469.13 1008.13 459.78
  Q 1016.43 445.24 1031.88 445.47
  C 1039.97 445.59 1048.04 448.92 1054.14 454.12
  A 0.38 0.38 0.0 0 0 1054.71 454.02
  Q 1058.94 446.72 1067.52 446.57
  C 1074.91 446.44 1083.00 448.43 1085.00 456.54
  Q 1085.78 459.66 1085.81 463.15
  Q 1086.08 492.18 1085.67 507.82
  Q 1085.56 512.11 1083.07 515.87
  C 1079.50 521.26 1069.07 521.35 1063.42 520.51
  Q 1057.88 519.68 1055.08 515.73
  Q 1054.69 515.19 1054.11 515.52
  Z
  M 1036.91 477.80
  Q 1035.34 487.93 1038.58 496.62
  Q 1041.64 504.85 1048.66 501.89
  Q 1050.59 501.07 1051.97 499.05
  Q 1052.36 498.48 1052.36 497.79
  Q 1052.34 483.24 1052.37 470.63
  C 1052.37 467.48 1048.79 465.07 1046.02 464.78
  C 1040.11 464.18 1037.61 473.26 1036.91 477.80
  Z"
/>
<path fill="#ffffff" d="
  M 1230.79 487.29
  Q 1229.64 487.31 1230.13 488.36
  Q 1234.50 497.50 1244.24 497.94
  Q 1251.71 498.28 1259.44 496.27
  C 1262.52 495.47 1265.37 494.12 1268.28 492.82
  C 1272.40 490.97 1276.65 492.90 1276.59 497.79
  C 1276.55 500.09 1275.26 502.71 1273.94 504.65
  C 1262.50 521.47 1241.29 524.97 1222.37 519.35
  C 1202.09 513.32 1192.60 496.07 1196.93 475.38
  C 1200.41 458.79 1214.56 448.26 1230.99 446.07
  C 1247.69 443.85 1275.89 446.35 1274.87 470.32
  C 1274.40 481.46 1263.31 486.88 1253.50 486.99
  Q 1242.33 487.12 1230.79 487.29
  Z
  M 1244.35 463.23
  C 1243.20 458.50 1237.98 457.34 1234.89 461.04
  Q 1230.12 466.77 1229.20 476.67
  Q 1229.14 477.27 1229.75 477.27
  Q 1235.68 477.27 1240.62 477.12
  C 1246.16 476.96 1245.23 466.84 1244.35 463.23
  Z"
/>
<path fill="#ffffff" d="
  M 334.40 513.36
  C 325.61 519.17 314.83 521.06 304.37 520.68
  C 291.57 520.21 287.02 509.85 285.75 498.81
  Q 283.77 481.70 285.89 462.00
  C 286.65 454.92 288.63 448.36 296.71 446.90
  C 305.10 445.38 318.55 446.28 318.69 458.18
  Q 318.88 473.35 319.00 489.11
  Q 319.04 495.10 323.72 496.63
  C 327.31 497.81 330.89 495.67 332.28 492.30
  Q 333.59 489.14 333.66 485.51
  Q 333.82 476.86 333.64 466.99
  C 333.46 457.82 335.85 449.30 345.38 447.17
  C 350.32 446.06 357.03 446.94 361.39 449.59
  C 366.09 452.45 367.18 458.49 367.18 463.73
  Q 367.17 481.49 367.15 503.54
  C 367.15 512.18 365.75 519.08 356.03 520.55
  C 348.64 521.66 338.08 521.84 335.04 513.57
  A 0.43 0.42 -26.6 0 0 334.40 513.36
  Z"
/>
<path fill="#ffffff" d="
  M 543.89 446.57
  C 554.66 446.26 562.42 450.38 562.47 462.22
  Q 562.55 482.88 562.50 504.51
  C 562.47 516.74 557.31 520.73 545.51 520.89
  C 533.05 521.05 529.12 515.50 529.05 503.50
  Q 528.92 483.96 529.04 463.49
  C 529.10 454.63 534.42 446.84 543.89 446.57
  Z"
/>
<path fill="#ffffff" d="
  M 610.37 454.46
  Q 621.12 446.36 635.98 447.09
  Q 646.36 447.59 651.03 456.34
  Q 651.36 456.95 651.91 456.54
  Q 666.35 445.99 684.79 447.19
  C 699.13 448.12 702.24 462.32 702.93 474.21
  Q 703.60 485.95 702.90 498.97
  Q 702.56 505.39 701.04 511.27
  C 699.58 516.91 695.73 520.13 689.98 520.68
  C 680.70 521.57 669.41 520.46 669.30 508.43
  Q 669.17 495.39 669.32 480.43
  C 669.37 476.04 668.32 471.52 663.09 471.04
  C 656.71 470.45 655.91 479.51 655.98 483.89
  Q 656.16 496.29 654.79 506.73
  C 653.99 512.81 651.51 519.55 644.63 520.54
  C 635.42 521.87 624.95 520.45 624.83 508.48
  Q 624.70 494.85 624.82 480.72
  C 624.87 475.88 623.85 471.31 618.23 471.00
  C 612.48 470.68 611.29 478.89 611.31 482.92
  Q 611.36 495.54 611.20 506.85
  C 611.12 512.84 608.68 518.37 602.25 519.90
  Q 593.95 521.86 586.73 520.04
  C 578.83 518.03 577.83 509.45 577.84 502.49
  Q 577.85 484.58 577.84 464.14
  C 577.84 455.19 582.62 447.10 592.36 446.59
  C 599.00 446.25 606.44 447.81 609.47 454.23
  Q 609.79 454.90 610.37 454.46
  Z"
/>
<path fill="#ffffff" d="
  M 962.93 453.04
  C 969.19 448.73 974.79 445.99 982.67 446.70
  Q 991.17 447.47 994.24 453.17
  Q 997.02 458.34 996.01 464.72
  Q 994.34 475.24 983.86 476.10
  C 979.66 476.45 977.25 474.39 974.15 472.06
  C 971.63 470.18 968.61 470.00 965.83 471.63
  Q 964.58 472.37 964.57 473.85
  Q 964.54 489.14 964.55 505.21
  C 964.55 511.36 962.89 517.71 956.48 519.60
  Q 950.05 521.50 942.41 520.59
  C 932.83 519.45 931.26 511.70 931.19 503.69
  Q 930.97 480.27 931.26 463.18
  C 931.49 449.53 941.35 444.62 953.48 447.25
  Q 959.27 448.51 962.08 452.87
  Q 962.42 453.39 962.93 453.04
  Z"
/>
<path fill="#ffffff" d="
  M 1134.56 491.03
  C 1134.59 496.94 1139.41 498.53 1144.34 497.09
  C 1148.09 496.00 1148.29 490.37 1148.28 487.09
  Q 1148.27 471.09 1148.60 458.03
  C 1148.89 446.41 1163.50 445.43 1171.50 447.13
  C 1177.76 448.45 1180.20 453.35 1181.00 459.31
  Q 1183.07 474.69 1182.10 487.09
  Q 1181.20 498.66 1173.94 507.35
  C 1162.55 520.98 1140.50 523.90 1124.89 518.04
  Q 1102.05 509.46 1100.42 485.74
  Q 1099.76 476.15 1101.23 462.27
  C 1102.18 453.38 1105.26 446.89 1115.51 446.59
  C 1124.82 446.32 1134.22 448.08 1134.32 459.81
  Q 1134.46 475.12 1134.56 491.03
  Z"
/>
<path fill="#ffffff" d="
  M 804.72 480.71
  Q 809.88 467.42 803.63 454.53
  Q 803.30 453.86 803.77 454.44
  C 812.09 464.86 815.14 478.05 807.99 490.01
  Q 807.31 491.14 806.81 489.92
  Q 805.68 487.16 803.22 485.25
  Q 802.19 484.45 803.06 483.48
  Q 804.08 482.36 804.72 480.71
  Z"
/>
<path fill="#ffffff" d="
  M 648.59 530.89
  C 652.82 529.92 656.94 527.04 659.69 523.58
  Q 660.08 523.09 659.91 523.69
  Q 608.51 712.38 556.39 904.64
  Q 553.92 913.77 551.59 917.19
  Q 546.84 924.16 540.15 927.96
  Q 524.69 936.73 512.02 924.18
  C 506.27 918.49 501.58 909.03 502.50 900.50
  Q 514.44 788.94 525.61 676.62
  Q 530.98 622.62 535.55 568.25
  Q 536.95 551.55 537.58 535.76
  Q 537.65 533.87 537.98 531.83
  Q 538.06 531.32 538.57 531.39
  C 550.49 532.89 563.48 531.25 569.93 520.31
  Q 570.23 519.80 570.52 520.31
  Q 576.00 529.81 587.42 531.36
  C 597.97 532.80 610.65 531.48 617.23 522.59
  Q 617.62 522.07 618.03 522.58
  C 625.31 531.88 637.81 533.34 648.59 530.89
  Z"
/>
<path fill="#ffffff" d="
  M 812.47 581.24
  Q 816.39 570.96 825.39 565.72
  Q 828.96 563.64 841.42 559.95
  Q 873.14 550.55 899.32 542.62
  C 910.97 539.08 923.25 543.78 930.80 553.17
  Q 933.49 556.51 936.66 565.43
  Q 981.29 691.15 1025.67 815.27
  Q 1030.04 827.50 1025.78 838.21
  Q 1022.12 847.41 1013.44 852.56
  Q 1009.64 854.82 996.73 858.65
  Q 962.13 868.92 926.57 879.85
  Q 925.97 880.04 926.26 880.60
  C 936.40 900.18 925.27 922.82 905.22 929.23
  C 896.25 932.11 885.75 930.88 877.62 926.08
  C 855.52 913.03 854.23 882.60 874.77 867.48
  Q 875.27 867.11 875.07 866.52
  L 764.84 532.95
  Q 764.74 532.66 765.05 532.64
  Q 779.75 531.61 792.10 523.24
  Q 792.62 522.89 792.81 523.48
  L 811.89 581.22
  Q 812.16 582.05 812.47 581.24
  Z"
/>
<path fill="#ffffff" d="
  M 689.07 919.11
  Q 681.88 915.38 677.16 908.59
  Q 674.98 905.45 673.10 898.69
  Q 647.66 807.67 620.43 710.84
  A 1.60 1.58 44.7 0 1 620.42 710.00
  L 667.48 536.98
  Q 667.77 535.91 667.95 537.00
  Q 698.00 719.89 725.64 887.33
  Q 726.67 893.53 726.03 897.57
  Q 724.56 906.95 719.34 913.44
  Q 707.24 928.51 689.07 919.11
  Z"
/>
</svg>
